<?xml version="1.0" standalone="no"?>
<!DOCTYPE svg PUBLIC "-//W3C//DTD SVG 20010904//EN"
 "http://www.w3.org/TR/2001/REC-SVG-20010904/DTD/svg10.dtd">
<svg version="1.0" xmlns="http://www.w3.org/2000/svg"
 width="225.000000pt" height="225.000000pt" viewBox="0 0 225.000000 225.000000"
 preserveAspectRatio="xMidYMid meet">

<g transform="translate(0.000000,225.000000) scale(0.100000,-0.100000)"
fill="#000000" stroke="none">
<path d="M1122 1618 l-2 -458 -462 -2 -463 -3 460 -5 460 -5 5 -460 5 -460 3
462 2 463 453 3 452 2 -452 3 -453 2 -3 458 -2 457 -3 -457z"/>
<path d="M1420 775 l0 -35 165 0 165 0 0 35 0 35 -165 0 -165 0 0 -35z"/>
<path d="M1420 625 l0 -35 165 0 165 0 0 35 0 35 -165 0 -165 0 0 -35z"/>
</g>
</svg>
